Coordinates
version=1
nRows=30
nColumns=19
inDegrees=yes

Units are S.I. units (second, meters, Newtons, ...)
If the header above contains a line with 'inDegrees', this indicates whether rotational values are in degrees (yes) or radians (no).

endheader
time	pelvis_tilt	pelvis_list	pelvis_rotation	pelvis_tx	pelvis_ty	pelvis_tz	hip_flexion_r	hip_adduction_r	hip_rotation_r	knee_angle_r	knee_angle_r_beta	ankle_angle_r	hip_flexion_l	hip_adduction_l	hip_rotation_l	knee_angle_l	knee_angle_l_beta	ankle_angle_l
     15.29333333	     -2.61290381	     -7.25055416	     -5.64931335	      2.43664838	      1.05354825	      1.09076496	     20.89586452	     12.46211765	     -2.83591968	      1.71409030	      0.02991652	      5.54292773	    -22.21067050	     -9.72523607	    -17.48310744	     68.60160718	      1.19732392	    -18.08066179
     15.30000000	     -1.79026307	     -7.94729701	     -5.83997936	      2.43564439	      1.05045432	      1.09012073	     20.01702870	     13.06381495	     -2.98544744	      3.76346782	      0.06568490	      5.34994660	    -21.73464510	    -10.49793481	    -17.02945544	     72.60011468	      1.26711104	    -17.68548463
     15.30666667	     -1.02521498	     -8.64074888	     -6.17735873	      2.43421002	      1.04678280	      1.08958271	     19.62236874	     13.64575621	     -3.35858104	      6.89803294	      0.12039339	      5.34043221	    -21.13501477	    -11.28219314	    -16.75943126	     76.59933091	      1.33691053	    -17.20357854
     15.31333333	     -0.57086362	     -9.17428393	     -6.63614195	      2.43253230	      1.04230580	      1.08918538	     19.88596113	     14.04968723	     -3.85840381	     10.87249181	      0.18976078	      5.55501852	    -20.08235537	    -11.94338204	    -16.48245345	     80.59182909	      1.40659277	    -16.70694514
     15.32000000	     -0.88802778	     -9.14718150	     -7.24188579	      2.43050384	      1.03664325	      1.08894300	     21.26586540	     13.92504112	     -4.21457621	     15.49812942	      0.27049339	      5.83752042	    -17.89420482	    -12.05778451	    -15.89951421	     84.66315251	      1.47765077	    -16.15693908
     15.32666667	     -0.59465864	     -9.35021481	     -7.68799393	      2.42850035	      1.03124535	      1.08841164	     21.87028534	     13.91933020	     -4.53580398	     20.03868965	      0.34974111	      6.30181041	    -16.35977110	    -12.42071830	    -15.37612760	     88.51978107	      1.54496163	    -15.65727004
     15.33333333	     -0.29719332	     -9.46254278	     -8.05276692	      2.42636113	      1.02563777	      1.08778803	     22.42802577	     13.78738800	     -4.76364602	     24.57264394	      0.42887354	      7.02538161	    -14.67211118	    -12.72525533	    -14.70179898	     92.27315037	      1.61047029	    -15.18039653
     15.34000000	     -0.01874553	     -9.46458515	     -8.40621145	      2.42402280	      1.01995458	      1.08712863	     22.90101551	     13.56877419	     -4.75962291	     28.97379778	      0.50568817	      8.04129952	    -12.80125086	    -12.91392963	    -13.92092787	     95.89992050	      1.67376937	    -14.72706598
     15.34666667	      0.73676906	     -9.66534528	     -8.61941157	      2.42153472	      1.01486829	      1.08630480	     22.60399662	     13.50082589	     -4.65540526	     32.97710016	      0.57555898	      9.40155645	    -11.38185177	    -13.28198645	    -13.09399430	     99.29452502	      1.73301639	    -14.28003191
     15.35333333	      0.67265771	     -9.12396944	     -8.77850368	      2.41852994	      1.00917900	      1.08548921	     23.22159167	     12.76998391	     -4.39715188	     36.94398227	      0.64479413	     11.10839126	     -8.55920365	    -12.90514424	    -11.77977637	    102.68945975	      1.79226918	    -14.03041399
     15.36000000	      1.24011244	     -8.98043493	     -8.88896622	      2.41540818	      1.00448368	      1.08463506	     22.73346856	     12.43085285	     -3.99540348	     40.25231839	      0.70253549	     13.14652464	     -6.49192738	    -12.91250107	    -10.65390274	    105.75914447	      1.84584529	    -13.59467257
     15.36666667	      1.33066067	     -8.34926430	     -8.93240040	      2.41184218	      0.99977574	      1.08368722	     22.63245234	     11.63575466	     -3.51761629	     43.26468195	      0.75511115	     15.28287136	     -3.52412918	    -12.36341562	     -9.25601251	    108.67485822	      1.89673409	    -13.38553674
     15.37333333	      1.40551503	     -7.78708520	     -9.01514750	      2.40811379	      0.99558141	      1.08290137	     22.18079449	     10.98916970	     -2.88989911	     45.67887973	      0.79724685	     17.66438322	     -0.48655443	    -11.89641880	     -7.97448239	    111.30799388	      1.94269098	    -13.04282507
     15.38000000	      1.49994611	     -7.11836599	     -9.06068157	      2.40424402	      0.99202305	      1.08208955	     21.39601883	     10.21299985	     -2.24358462	     47.54244500	      0.82977220	     20.08292758	      2.63804026	    -11.29205656	     -6.75843358	    113.60961481	      1.98286184	    -12.65250020
     15.38666667	      2.22850498	     -6.90383500	     -9.26726518	      2.40041089	      0.98993929	      1.08169031	     19.40824349	      9.95913112	     -1.28863280	     48.61541382	      0.84849904	     22.23824367	      4.86419752	    -11.19912831	     -5.91939251	    115.42554709	      2.01455584	    -12.21810280
     15.39333333	      1.55494911	     -5.51460412	     -9.15428397	      2.39677150	      0.98689961	      1.08070667	     18.98433146	      8.36253129	     -0.89562489	     49.57397475	      0.86522908	     24.78477453	      9.13643681	     -9.76891545	     -4.76777110	    117.05474126	      2.04299064	    -11.64962994
     15.40000000	      1.88813084	     -4.94409716	     -9.34956560	      2.39373654	      0.98600306	      1.08053701	     16.78793394	      7.68687075	     -0.05110289	     49.52380745	      0.86435350	     26.85835710	     11.78958195	     -9.33707089	     -4.23224247	    118.03121483	      2.06003332	    -10.93076148
     15.40666667	      1.71641958	     -3.75930106	     -9.28489555	      2.39098878	      0.98518095	      1.07997296	     15.10511313	      6.21633082	      0.37576629	     49.27303671	      0.85997672	     28.59218090	     15.17345148	     -8.14471424	     -3.68818828	    118.65394577	      2.07090202	    -10.15959591
     15.41333333	      1.44420897	     -2.89826862	     -9.40215854	      2.38895065	      0.98505965	      1.08006372	     13.13871828	      5.19277456	      0.95967154	     48.39492157	      0.84465072	     29.90670426	     18.35866435	     -7.52296545	     -3.47717771	    118.83746429	      2.07410503	     -9.24622166
     15.42000000	      1.19095691	     -2.18642064	     -9.58720345	      2.38762270	      0.98578770	      1.08062752	     10.85743156	      4.35987998	      1.64286892	     47.00720360	      0.82043048	     30.62588133	     21.25653357	     -7.24807531	     -3.54570257	    118.57856431	      2.06958637	     -8.22677399
     15.42666667	      0.79469080	     -1.35348727	     -9.53186736	      2.38705417	      0.98698177	      1.08086633	      8.57283460	      3.25626848	      1.86337438	     45.27761225	      0.79024341	     30.96052917	     24.20390148	     -6.68814125	     -3.56347573	    117.95544634	      2.05871091	     -7.00455117
     15.43333333	      0.15710982	     -0.58141117	     -9.64614699	      2.38730595	      0.98878073	      1.08170310	      6.36562705	      2.34559775	      2.35717165	     43.16802412	      0.75342415	     30.46901132	     27.09523169	     -6.47281318	     -3.93911608	    116.89736631	      2.04024393	     -5.90480483
     15.44000000	      0.34939855	      0.19179657	     -9.30603280	      2.38869989	      0.99223981	      1.08209580	      3.00383959	      1.14421498	      2.15574191	     40.54943244	      0.70772111	     29.28694765	     28.81276352	     -5.88924784	     -4.18826856	    115.33429153	      2.01296313	     -4.55709388
     15.44666667	     -0.58423993	      0.98663139	     -9.38565607	      2.39045115	      0.99497295	      1.08307730	      0.94728376	      0.24309713	      2.57283681	     37.95861654	      0.66250284	     27.37938374	     31.53082223	     -5.75797808	     -4.88191826	    113.55691286	      1.98194202	     -3.35044422
     15.45333333	      0.35801899	      1.73116376	     -9.04085461	      2.39351001	      1.00054695	      1.08371949	     -3.50632328	     -1.03770753	      2.10088523	     34.58900846	      0.60369208	     24.49801062	     31.78073761	     -5.19369636	     -5.55747710	    111.17589856	      1.94038548	     -1.94955245
     15.46000000	      0.36406467	      2.55263834	     -8.92139943	      2.39676231	      1.00536539	      1.08449308	     -6.73984392	     -2.18407458	      1.89176743	     31.42669170	      0.54849924	     20.88162521	     32.90772507	     -4.84464191	     -6.50671948	    108.63514720	      1.89604100	     -0.67835618
     15.46666667	      0.26585618	      3.36742797	     -8.64745422	      2.40047672	      1.01041926	      1.08498677	     -9.82855237	     -3.27271039	      1.39117415	     28.20207676	      0.49221910	     16.57176968	     33.97533498	     -4.41997693	     -7.41526668	    105.85232839	      1.84747165	      0.51176651
     15.47333333	      0.10615791	      4.15218360	     -8.31741284	      2.40450762	      1.01564583	      1.08523009	    -12.75001991	     -4.28881264	      0.65565908	     25.03615908	      0.43696341	     11.61737051	     34.92730559	     -3.98482632	     -8.35402808	    102.84085555	      1.79491153	      1.64579144
     15.48000000	     -0.32679174	      4.77945470	     -7.70546061	      2.40873058	      1.02068575	      1.08496664	    -15.28087793	     -5.00727520	     -0.51710875	     22.01179251	      0.38417825	      6.17471755	     36.08185481	     -3.54088353	     -9.01319745	     99.70267084	      1.74013988	      2.63994446
     15.48666667	     -0.72284840	      5.37964927	     -7.16252458	      2.41313274	      1.02588642	      1.08462686	    -17.68716977	     -5.66211836	     -1.74709761	     19.16501065	      0.33449254	      0.52409237	     36.99081690	     -3.14208955	     -9.81717349	     96.33231015	      1.68131599	      3.50139535
